<svg width="290" height="272" viewBox="0 0 290 272" fill="none" xmlns="http://www.w3.org/2000/svg">
<path d="M53.036 53.6933C51.5734 56.1373 53.5414 58.4933 55.8107 58.4453C57.4507 58.412 59.148 58.6373 60.836 59.1506C62.5227 59.6653 64.056 60.4253 65.3987 61.3693C67.2547 62.6733 70.204 61.8186 70.3547 58.9733C70.624 53.836 68.2507 49.3373 64.204 48.1053C60.1587 46.8706 55.676 49.2773 53.036 53.6933Z" fill="#0174DF"/>
<path d="M222.848 62.908C224.381 62.3226 226.056 61.9613 227.816 61.8773C229.579 61.792 231.28 61.9906 232.861 62.4253C235.049 63.0279 237.537 61.2293 236.716 58.5C235.241 53.5733 231.487 50.1386 227.261 50.3426C223.037 50.5453 219.632 54.3226 218.633 59.3706C218.08 62.1653 220.728 63.7173 222.848 62.908Z" fill="#0174DF"/>
<path d="M286.125 260.113C288.569 256.305 289.815 251.903 289.815 247.519C289.815 234.96 280.041 223.592 262.823 222.437C262.58 222.375 262.331 222.327 262.079 222.299C239.056 198.688 228.499 141.5 234.76 107.137C255.709 105.503 270.444 93.196 275.948 72.1853C278.38 62.896 274.065 55.7386 265.133 54.0386C260.752 53.2053 257.843 50.6053 256.235 46.0919C256.183 45.9479 256.127 45.8066 256.064 45.6679C247.615 26.9359 232.984 24.6159 223.285 23.7573C223.285 23.7213 223.321 23.6466 223.285 23.648C219.779 23.8506 215.432 23.8359 217.753 21.2613C223.945 14.3946 225.032 11.1506 225.747 8.6533C227.321 3.1373 221.469 -0.465394 217.085 0.258606C193.001 4.23461 169.391 25.7466 156.913 54.9106C155.283 58.7226 152.509 65.2613 149.041 73.6573C144.636 63.0786 135.668 37.5866 109.824 24.1626C98.4413 18.2479 87.2533 16.3906 75.5613 17.116C65.8026 17.7106 45.5146 18.9413 34.576 43.4626C34.2413 43.7946 31.5799 46.0506 20.0626 47.284C12.9959 48.0426 6.44395 47.98 6.37729 47.9786C6.35595 47.9786 6.33462 47.9786 6.31196 47.9786C3.25329 47.9786 0.753291 50.44 0.713291 53.5066C0.303958 85.2826 14.6279 99.1239 25.3719 105.028C25.3853 105.036 25.3986 105.047 25.4133 105.055C31.8826 108.951 40.0559 109.868 47.6386 109.868C51.7519 109.868 55.4959 109.601 58.2866 109.321C60.3893 122.604 64.3026 176.336 37.6999 222.452C20.6253 223.72 11.012 235.088 11.012 247.519C11.012 251.903 12.2573 256.305 14.7013 260.113C14.7013 260.113 20.7373 271.311 39.1666 271.311C42.3839 271.311 92.3333 271.311 99.3399 271.311C102.432 271.311 104.94 268.804 104.94 265.711C104.94 262.62 102.432 260.113 99.3399 260.113C92.3679 260.113 43.4453 260.113 37.3186 260.113C26.8826 260.113 22.2106 253.785 22.2106 247.519C22.2106 239.539 29.1799 233.905 39.8973 233.568C44.8119 234.659 50.7639 237.447 53.2093 244.417C54.2346 247.341 57.4346 248.869 60.348 247.848C63.2653 246.824 64.8013 243.629 63.7773 240.709C61.2546 233.517 56.1786 228.092 49.1639 224.901C74.0919 179.371 72.2066 126.901 69.4893 108.94C68.9853 105.624 67.6853 101.465 67.4266 100.887C66.4133 98.6093 63.9573 97.2306 61.412 97.6506C56.544 98.4466 43.2959 99.8399 34.1213 96.7639C33.8546 96.6733 33.5973 96.58 33.348 96.4853C23.312 92.112 16.6719 83.5146 13.6986 71.2493C17.3333 70.4253 22.5999 67.4613 26.0266 57.7866C36.5946 56.112 42.5919 53.0133 44.7546 48.1373C49.9186 36.4826 57.2786 31.748 65.4106 29.7213C69.6173 28.6733 80.4559 27.2053 89.6706 33.376C92.2506 35.1013 94.3253 37.9279 95.5719 41.5386C97.6559 47.5653 96.1493 54.3013 91.3306 60.5026C78.8426 76.5759 75.6906 84.7759 76.8426 95.4399C77.5693 102.163 81.2333 107.675 87.1599 110.96C95.3013 115.475 105.965 115.625 114.101 110.603C122.863 105.195 127.939 95.5679 130.399 79.3399C130.404 79.3093 130.412 79.2813 130.417 79.2506C128.289 73.8053 124.916 66.3226 120.768 61.1106C121.091 65.632 121.745 71.3346 120.415 77.3706C117.737 89.4893 116.039 95.568 109.225 100.52C103.955 104.349 96.9866 103.604 92.5919 101.167C89.8626 99.6533 88.3119 97.3199 87.9786 94.2373C87.3546 88.4706 87.9999 83.0426 100.175 67.3733C107.845 57.5013 110.275 44.9813 104.435 33.9359C105.837 34.6533 107.457 35.5986 108.98 36.6999V36.6973C108.98 36.6973 116.789 41.6439 124.961 52.1706C127.331 55.2226 135.637 66.1693 143.037 88.3813C126.104 130.432 101.339 196.519 101.339 223.363C101.339 249.803 122.848 271.311 149.288 271.311C175.727 271.311 197.237 249.803 197.237 223.363C197.237 208.829 188.577 177.833 171.5 131.233C167.596 120.585 163.637 110.183 159.925 100.691L154.236 116.883C169.195 156.103 186.035 205.068 186.035 223.363C186.035 243.627 169.551 260.113 149.288 260.113C129.024 260.113 112.539 243.627 112.539 223.363C112.539 194.989 144.388 114.963 155.104 88.5066C155.101 88.5013 155.097 88.4959 155.096 88.4906C161.075 73.7293 165.708 62.8266 167.211 59.316C175.151 40.752 191.201 20.7013 210.753 13.5026C196.143 27.4959 201.375 34.8239 206.721 34.8239C213.943 34.8239 215.401 34.8239 221.199 34.8239C230.199 35.5653 239.595 36.5773 245.767 50.084C248.192 56.7026 252.733 61.456 258.785 63.82C257.476 67.1066 256.465 72.7426 262.971 75.6853C258.044 87.316 247.249 98.1546 223.865 95.8173C220.777 95.5053 218.044 97.7559 217.739 100.833C217.431 103.912 219.676 106.655 222.753 106.961C222.977 106.984 223.197 106.996 223.421 107.017C220.536 124.88 221.584 148.259 226.348 170.547C231.3 193.709 239.679 212.98 250.279 225.884C244.279 229.153 239.908 234.207 237.627 240.709C236.343 244.367 239.075 248.164 242.909 248.164C245.22 248.164 247.384 246.723 248.195 244.417C250.627 237.481 256.528 234.689 261.429 233.585C284.58 234.672 283.579 260.113 263.508 260.113C254.163 260.113 208.427 260.113 199.288 260.113C196.196 260.113 193.689 262.62 193.689 265.711C193.689 268.804 196.196 271.311 199.288 271.311C208.435 271.311 245.796 271.311 263.508 271.311C281.219 271.311 286.125 260.113 286.125 260.113Z" fill="#0174DF"/>
</svg>
